Coordinates
version=1
nRows=8
nColumns=63
inDegrees=yes

Units are S.I. units (second, meters, Newtons, ...)
If the header above contains a line with 'inDegrees', this indicates whether rotational values are in degrees (yes) or radians (no).

endheader
time	pelvis_tilt	pelvis_list	pelvis_rotation	pelvis_tx	pelvis_ty	pelvis_tz	hip_flexion_r	hip_adduction_r	hip_rotation_r	knee_angle_r	knee_angle_r_beta	ankle_angle_r	subtalar_angle_r	mtp_angle_r	hip_flexion_l	hip_adduction_l	hip_rotation_l	knee_angle_l	knee_angle_l_beta	ankle_angle_l	subtalar_angle_l	mtp_angle_l	L5_S1_Flex_Ext	L5_S1_Lat_Bending	L5_S1_axial_rotation	L4_L5_Flex_Ext	L4_L5_Lat_Bending	L4_L5_axial_rotation	L3_L4_Flex_Ext	L3_L4_Lat_Bending	L3_L4_axial_rotation	L2_L3_Flex_Ext	L2_L3_Lat_Bending	L2_L3_axial_rotation	L1_L2_Flex_Ext	L1_L2_Lat_Bending	L1_L2_axial_rotation	L1_T12_Flex_Ext	L1_T12_Lat_Bending	L1_T12_axial_rotation	Abs_r3	Abs_r2	Abs_r1	Abs_t1	Abs_t2	neck_flexion	neck_bending	neck_rotation	arm_flex_r	arm_add_r	arm_rot_r	elbow_flex_r	pro_sup_r	wrist_flex_r	wrist_dev_r	arm_flex_l	arm_add_l	arm_rot_l	elbow_flex_l	pro_sup_l	wrist_flex_l	wrist_dev_l
      2.23333333	     -1.21910747	    -10.02481067	     88.15750098	      0.18477346	      0.89737863	      0.41306475	     12.89082492	     -4.93070680	    -14.29193798	     15.35382428	      0.26797479	     24.33013638	     17.41262036	      0.00000000	     12.59438208	     -0.49950738	     -8.20958366	     13.90030246	      0.24260604	     18.66736438	      3.75899415	      0.00000000	      0.40425364	     -1.67669840	      2.54051967	      0.75073944	     -2.23000887	      2.69930215	      0.66414831	     -4.07672449	      2.69930215	      0.46202149	     -4.07672449	      2.22295471	      0.37538993	     -3.41912338	      2.06417223	      0.23099053	     -2.59720582	      1.90538975	      2.88754334	    -18.96714763	     14.12960826	      0.00000000	      0.00000000	      2.91052780	     21.38694877	    -33.79823605	    -13.71580893	     -5.97301222	    132.87801101	      0.57618614	      0.46376128	     69.81827760	    -24.72432731	     22.80806264	    -73.09980117	     91.21878711	    108.43142179	     89.03853720	      3.10430040	     11.00329200
      2.25000000	     -2.45805304	    -10.63256981	     87.54012575	      0.18819313	      0.89690351	      0.41042170	     13.42725964	     -5.87315521	    -13.44735020	     15.32288545	      0.26743480	     24.47810707	     17.14911830	      0.00000000	     12.98799135	      0.39090446	     -9.45668206	     13.60219501	      0.23740309	     19.01320601	      5.15904158	      0.00000000	      0.46793975	     -1.85799170	      2.80778569	      0.86901092	     -2.47112896	      2.98327230	      0.76877822	     -4.51752101	      2.98327230	      0.53480835	     -4.51752101	      2.45681248	      0.43452886	     -3.78881667	      2.28132587	      0.26738078	     -2.87802914	      2.10583927	      3.34244687	    -21.01797368	     15.61606167	      0.00000000	      0.00000000	      2.88847420	     22.58466895	    -34.54482430	    -14.36922541	     -2.32821486	    133.30774905	      0.51681569	      0.43693747	     69.82824010	    -24.74461091	     34.04868703	    -72.04613750	    104.90857515	    110.86614173	     89.05746285	      0.51851592	      3.27603922
      2.26666667	     -3.02224205	    -10.79900650	     87.08265689	      0.19081212	      0.89676068	      0.40876463	     13.52990694	     -6.19796192	    -12.93453666	     15.31687141	      0.26732984	     24.31221889	     16.84077810	      0.00000000	     13.06701529	      0.67889096	    -10.18652384	     13.53846881	      0.23629086	     19.59484585	      6.08130101	      0.00000000	      0.48323608	     -1.93166272	      2.69511678	      0.89741773	     -2.56911142	      2.86356158	      0.79390856	     -4.69664474	      2.86356158	      0.55229052	     -4.69664474	      2.35822718	      0.44873303	     -3.93904662	      2.18978238	      0.27612110	     -2.99214556	      2.02133758	      3.45170702	    -21.85135505	     14.98943098	      0.00000000	      0.00000000	      1.79062951	     22.89288316	    -32.97472556	    -13.99413238	     -0.26688869	    135.15492254	      0.49559694	      0.42746934	     69.83549724	    -24.75739776	     31.68786918	    -71.83472224	    103.52227187	    112.84636039	     89.06502777	     -0.16480307	     -0.62295765
      2.28333333	     -3.20933644	    -10.85379788	     86.80179139	      0.19212409	      0.89600801	      0.40765940	     13.51287181	     -6.27750667	    -12.85391519	     15.33372829	      0.26762405	     24.25925504	     16.83689377	      0.00000000	     13.08214866	      0.76013313	    -10.22296110	     13.55832000	      0.23663733	     20.10119013	      6.04499927	      0.00000000	      0.46506208	     -1.95481590	      2.65930568	      0.86366678	     -2.59990515	      2.82551228	      0.76405049	     -4.75293939	      2.82551228	      0.53151945	     -4.75293939	      2.32689247	      0.43185664	     -3.98626059	      2.16068586	      0.26573647	     -3.02800983	      1.99447926	      3.32189191	    -22.11326846	     14.79026038	      0.00000000	      0.00000000	      1.28014547	     22.83558642	    -32.54139677	    -14.02299415	      0.88301781	    135.31382216	      0.52367715	      0.43719551	     69.83872067	    -24.76155718	     31.32981218	    -70.77072434	    103.52116085	    114.46169293	     89.02464490	     -0.04699307	     -1.26381875
      2.30000000	     -3.55450323	    -10.56606247	     86.19535351	      0.19394682	      0.89599136	      0.40747213	     13.35290127	     -6.43574347	    -12.02765856	     15.46694963	      0.26994920	     24.43431277	     16.50090119	      0.00000000	     12.82566599	      0.72549663	    -12.26281056	     13.84469671	      0.24163554	     20.57047741	      8.12746946	      0.00000000	      0.46044900	     -1.97083889	      2.22249822	      0.85509984	     -2.62121572	      2.36140436	      0.75647166	     -4.79189768	      2.36140436	      0.52624716	     -4.79189768	      1.94468594	      0.42757294	     -4.01893467	      1.80577981	      0.26310056	     -3.05282944	      1.66687367	      3.28894117	    -22.29452370	     12.36086836	      0.00000000	      0.00000000	     -1.42477780	     21.96307135	    -27.88062079	    -12.69304651	      0.80381902	    140.24236305	      0.43369896	      0.42881433	     69.83636887	    -24.76546388	     18.10492630	    -71.51748687	     91.11274545	    114.07002065	     89.03798061	     -2.24437496	     -7.59751989
      2.31666667	     -3.58173442	    -10.34074369	     85.69894765	      0.19462298	      0.89540074	      0.40723076	     13.22192611	     -6.37867378	    -11.54632893	     15.59195703	      0.27213099	     24.68868230	     16.49047315	      0.00000000	     12.58527068	      0.57564634	    -13.35339076	     14.07760138	      0.24570049	     20.79616520	      8.67618417	      0.00000000	      0.44519758	     -1.96015060	      2.12182406	      0.82677643	     -2.60700030	      2.25443806	      0.73141511	     -4.76591016	      2.25443806	      0.50881632	     -4.76591016	      1.85659605	      0.41341047	     -3.99713910	      1.72398205	      0.25438590	     -3.03627328	      1.59136804	      3.18000181	    -22.17361560	     11.80094887	      0.00000000	      0.00000000	     -2.89058826	     21.24114260	    -26.02658073	    -12.28777631	      0.38945390	    141.93514007	      0.40884367	      0.43208083	     69.83402159	    -24.76480387	     15.24407127	    -70.85147291	     89.17593063	    113.66693423	     88.98881988	     -5.33981406	    -11.23658918
      2.33333333	     -3.50077259	    -10.08183642	     85.25961349	      0.19484450	      0.89501133	      0.40700694	     13.03119512	     -6.25313853	    -11.18391701	     15.67083368	      0.27350764	     25.01045699	     16.62617407	      0.00000000	     12.28986908	      0.31496171	    -14.77203102	     14.34307589	      0.25033390	     20.89402773	      9.57792155	      0.00000000	      0.43373280	     -1.94230556	      1.99867702	      0.80548517	     -2.58326640	      2.12359434	      0.71257961	     -4.72252174	      2.12359434	      0.49571321	     -4.72252174	      1.74884240	      0.40276427	     -3.96074950	      1.62392508	      0.24783492	     -3.00863131	      1.49900777	      3.09810999	    -21.97174897	     11.11604201	      0.00000000	      0.00000000	     -4.15477906	     20.66698456	    -24.38765371	    -11.78184627	     -0.41177098	    143.36103268	      0.41442674	      0.44143137	     69.83334267	    -24.76156857	     10.74335846	    -70.57191929	     85.41687238	    113.35078491	     88.96776801	     -8.91087538	    -13.42554513
      2.35000000	     -3.39035585	     -9.97710721	     85.22718112	      0.19457796	      0.89446447	      0.40642707	     12.88727503	     -6.15996923	    -11.13967656	     15.71652989	      0.27430519	     25.51121946	     16.68313115	      0.00000000	     12.12858911	      0.20150858	    -15.12923855	     14.50668506	      0.25318942	     20.68684260	      9.40227099	      0.00000000	      0.43547815	     -1.93719965	      1.98716157	      0.80872647	     -2.57647553	      2.11135917	      0.71544705	     -4.71010723	      2.11135917	      0.49770798	     -4.71010723	      1.73876638	      0.40438501	     -3.95033753	      1.61456878	      0.24883222	     -3.00072226	      1.49037118	      3.11057688	    -21.91398988	     11.05199652	      0.00000000	      0.00000000	     -4.83747219	     20.65511371	    -24.28106671	    -11.76497483	     -0.98346357	    143.42817459	      0.43438461	      0.45367087	     69.83352435	    -24.75702480	     10.64073336	    -70.55146140	     85.25254053	    113.45795695	     88.99500969	     -9.00405677	    -13.51472161
